<svg xmlns="http://www.w3.org/2000/svg" viewBox="0 0 100 100">
  <defs>
    <linearGradient id="vscode-grad1" x1="0%" y1="0%" x2="100%" y2="100%">
      <stop offset="0%" style="stop-color:#0065A9"/>
      <stop offset="100%" style="stop-color:#007ACC"/>
    </linearGradient>
    <linearGradient id="vscode-grad2" x1="0%" y1="0%" x2="100%" y2="100%">
      <stop offset="0%" style="stop-color:#0098FF"/>
      <stop offset="100%" style="stop-color:#007ACC"/>
    </linearGradient>
  </defs>
  <!-- Background rounded square -->
  <rect x="5" y="5" width="90" height="90" rx="18" ry="18" fill="url(#vscode-grad1)"/>
  <!-- VS Code logo shape -->
  <g transform="translate(15, 15) scale(0.7)">
    <!-- Left bracket/sidebar -->
    <path d="M 70 10 L 70 90 L 85 80 L 85 20 Z" fill="#ffffff" opacity="0.9"/>
    <!-- Main editor area -->
    <path d="M 25 25 L 60 10 L 60 90 L 25 75 Z" fill="#ffffff" opacity="0.8"/>
    <!-- Folded corner / accent -->
    <path d="M 15 35 L 25 25 L 25 75 L 15 65 Z" fill="#ffffff" opacity="0.95"/>
    <!-- Code lines representation -->
    <rect x="30" y="30" width="20" height="3" rx="1" fill="#0065A9" opacity="0.6"/>
    <rect x="32" y="38" width="18" height="3" rx="1" fill="#0065A9" opacity="0.6"/>
    <rect x="30" y="46" width="22" height="3" rx="1" fill="#0065A9" opacity="0.6"/>
    <rect x="34" y="54" width="16" height="3" rx="1" fill="#0065A9" opacity="0.6"/>
    <rect x="30" y="62" width="20" height="3" rx="1" fill="#0065A9" opacity="0.6"/>
  </g>
</svg>
